<svg xmlns="http://www.w3.org/2000/svg" width="1200" height="630" viewBox="0 0 1200 630">
  <rect width="1200" height="630" fill="#080a0a"/>
  <path d="M0 0h1200v630H0z" fill="url(#g)"/>
  <g opacity=".18" stroke="#fff">
    <path d="M0 80h1200M0 160h1200M0 240h1200M0 320h1200M0 400h1200M0 480h1200M0 560h1200"/>
    <path d="M80 0v630M160 0v630M240 0v630M320 0v630M400 0v630M480 0v630M560 0v630M640 0v630M720 0v630M800 0v630M880 0v630M960 0v630M1040 0v630M1120 0v630"/>
  </g>
  <text x="88" y="150" fill="#f2f5f3" font-family="Inter, Arial, sans-serif" font-size="54" font-weight="800">Flag<tspan fill="#00d97e">Lint</tspan></text>
  <text x="88" y="270" fill="#f2f5f3" font-family="Inter, Arial, sans-serif" font-size="70" font-weight="800">Migrate LaunchDarkly</text>
  <text x="88" y="355" fill="#f2f5f3" font-family="Inter, Arial, sans-serif" font-size="70" font-weight="800">usage to OpenFeature</text>
  <text x="88" y="430" fill="#b3bcb8" font-family="Inter, Arial, sans-serif" font-size="32">Inventory. Preview guarded diffs. Enforce in CI.</text>
  <rect x="88" y="492" width="390" height="58" rx="10" fill="#00d97e"/>
  <text x="116" y="531" fill="#02100a" font-family="ui-monospace, SFMono-Regular, Menlo, monospace" font-size="24" font-weight="700">npx flaglint scan ./src</text>
  <defs>
    <radialGradient id="g" cx=".2" cy=".1" r=".8">
      <stop offset="0" stop-color="#00d97e" stop-opacity=".18"/>
      <stop offset=".55" stop-color="#00d97e" stop-opacity=".04"/>
      <stop offset="1" stop-color="#080a0a" stop-opacity="0"/>
    </radialGradient>
  </defs>
</svg>
